# xmcd CD database file
#
# Track frame offsets:
#	150
#	3125
#	30663
#	51720
#	73190
#	99641
#	124030
#	157647
#	180885
#	209747
#	232175
#	264108
#
# Disc length: 3663 seconds
#
# Revision: 3
# Processed by: cddbd v1.5.1PL0 Copyright (c) Steve Scherf et al.
# Submitted via: CDex 1.51
#
DISCID=9c0e4d0c
DTITLE=Spencer Sherrod - Listen With Your Heart
DYEAR=2004
DGENRE=Jazz
TTITLE0=Dedicated
TTITLE1=It's Tight
TTITLE2=Subtle Message
TTITLE3=Forever Changed
TTITLE4=Life's Changes
TTITLE5=Following Your Heart
TTITLE6=Dewey Da Da Da
TTITLE7=Remember When (I found someone like you)
TTITLE8=Marian's Groove
TTITLE9=This Too Will Pass
TTITLE10=Just Family
TTITLE11=It's Tight (vinyl interlude)
EXTD=YEAR: 2004
EXTT0=
EXTT1=
EXTT2=
EXTT3=
EXTT4=
EXTT5=
EXTT6=
EXTT7=
EXTT8=
EXTT9=
EXTT10=
EXTT11=
PLAYORDER=
